<svg xmlns="http://www.w3.org/2000/svg" width="142" height="109" viewBox="0 0 142 109" fill="none">
  <path d="M 28 2 L 27 3 L 26 3 L 25 3 L 24 3 L 23 3 L 22 4 L 21 4 L 20 4 L 19 5 L 18 5 L 17 6 L 16 7 L 15 7 L 14 8 L 13 9 L 12 10 L 11 11 L 10 12 L 10 13 L 9 14 L 8 15 L 8 16 L 7 17 L 7 18 L 6 19 L 6 20 L 5 21 L 5 22 L 5 23 L 5 24 L 5 25 L 5 26 L 5 27 L 5 28 L 4 29 L 4 30 L 4 31 L 4 32 L 4 33 L 5 34 L 5 35 L 5 36 L 5 37 L 6 38 L 6 39 L 7 40 L 7 41 L 8 42 L 8 43 L 9 44 L 10 45 L 10 46 L 11 47 L 12 48 L 13 49 L 12 50 L 11 51 L 10 52 L 9 53 L 8 54 L 8 55 L 7 56 L 6 57 L 6 58 L 5 59 L 4 60 L 4 61 L 4 62 L 3 63 L 3 64 L 3 65 L 3 66 L 3 67 L 3 68 L 2 69 L 2 70 L 2 71 L 3 72 L 3 73 L 3 74 L 3 75 L 3 76 L 4 77 L 4 78 L 5 79 L 5 80 L 6 81 L 6 82 L 7 83 L 8 84 L 9 85 L 9 86 L 10 87 L 11 88 L 12 89 L 13 90 L 14 90 L 15 91 L 16 92 L 17 92 L 18 93 L 19 94 L 20 94 L 21 95 L 22 96 L 23 96 L 24 97 L 25 97 L 26 97 L 27 98 L 28 98 L 29 99 L 30 99 L 31 100 L 32 100 L 33 100 L 34 101 L 35 101 L 36 101 L 37 102 L 38 102 L 39 102 L 40 103 L 41 103 L 42 103 L 43 103 L 44 104 L 45 104 L 46 104 L 47 104 L 48 104 L 49 105 L 50 105 L 51 105 L 52 105 L 53 105 L 54 105 L 55 105 L 56 105 L 57 106 L 58 106 L 59 106 L 60 106 L 61 106 L 62 106 L 63 106 L 64 106 L 65 106 L 66 106 L 67 106 L 68 106 L 69 106 L 70 106 L 71 106 L 72 106 L 73 106 L 74 106 L 75 106 L 76 106 L 77 106 L 78 106 L 79 106 L 80 106 L 81 106 L 82 106 L 83 106 L 84 106 L 85 105 L 86 105 L 87 105 L 88 105 L 89 105 L 90 105 L 91 105 L 92 105 L 93 104 L 94 104 L 95 104 L 96 104 L 97 104 L 98 103 L 99 103 L 100 103 L 101 102 L 102 102 L 103 102 L 104 102 L 105 101 L 106 101 L 107 101 L 108 100 L 109 100 L 110 100 L 111 99 L 112 99 L 113 98 L 114 98 L 115 98 L 116 97 L 117 97 L 118 96 L 119 96 L 120 95 L 121 94 L 122 94 L 123 93 L 124 93 L 125 92 L 126 91 L 127 90 L 128 90 L 129 89 L 130 88 L 131 87 L 132 86 L 133 85 L 133 84 L 134 83 L 135 82 L 135 81 L 136 80 L 137 79 L 137 78 L 137 77 L 138 76 L 138 75 L 138 74 L 138 73 L 139 72 L 139 71 L 139 70 L 139 69 L 139 68 L 138 67 L 138 66 L 138 65 L 138 64 L 138 63 L 138 62 L 137 61 L 137 60 L 136 59 L 136 58 L 135 57 L 134 56 L 133 55 L 133 54 L 132 53 L 131 52 L 130 51 L 129 50 L 129 49 L 130 48 L 130 47 L 131 46 L 132 45 L 132 44 L 133 43 L 134 42 L 134 41 L 135 40 L 135 39 L 136 38 L 136 37 L 136 36 L 136 35 L 137 34 L 137 33 L 137 32 L 137 31 L 137 30 L 137 29 L 137 28 L 137 27 L 137 26 L 137 25 L 137 24 L 136 23 L 136 22 L 136 21 L 136 20 L 135 19 L 135 18 L 134 17 L 134 16 L 133 15 L 133 14 L 132 13 L 131 12 L 130 11 L 129 10 L 128 9 L 127 8 L 126 7 L 125 7 L 124 6 L 123 5 L 122 5 L 121 4 L 120 4 L 119 4 L 118 3 L 117 3 L 116 3 L 115 3 L 114 2 L 113 2 L 112 2 L 111 2 L 110 2 L 109 2 L 108 2 L 107 2 L 106 3 L 105 3 L 104 3 L 103 3 L 102 4 L 101 4 L 100 4 L 99 5 L 98 5 L 97 6 L 96 6 L 95 7 L 94 8 L 93 9 L 92 10 L 91 11 L 90 12 L 89 13 L 88 14 L 88 15 L 87 16 L 87 17 L 86 18 L 86 19 L 85 20 L 85 21 L 85 22 L 84 23 L 84 24 L 84 25 L 84 26 L 84 27 L 84 28 L 84 29 L 83 30 L 83 31 L 82 32 L 81 32 L 80 32 L 79 32 L 78 32 L 77 32 L 76 32 L 75 32 L 74 32 L 73 32 L 72 32 L 71 32 L 70 32 L 69 32 L 68 32 L 67 32 L 66 32 L 65 32 L 64 32 L 63 32 L 62 32 L 61 32 L 60 32 L 59 32 L 58 31 L 58 30 L 58 29 L 58 28 L 58 27 L 58 26 L 57 25 L 57 24 L 57 23 L 57 22 L 56 21 L 56 20 L 56 19 L 55 18 L 55 17 L 54 16 L 54 15 L 53 14 L 52 13 L 52 12 L 51 11 L 50 10 L 49 9 L 48 8 L 47 8 L 46 7 L 45 6 L 44 6 L 43 5 L 42 5 L 41 4 L 40 4 L 39 4 L 38 3 L 37 3 L 36 3 L 35 3 L 34 3 L 33 2 L 32 2 L 31 2 L 30 2 L 29 2 Z M 32 51 L 33 50 L 34 50 L 35 50 L 36 50 L 37 50 L 38 50 L 39 50 L 40 50 L 41 50 L 42 50 L 43 50 L 44 50 L 45 50 L 46 50 L 47 50 L 48 50 L 49 50 L 50 50 L 51 50 L 52 50 L 53 50 L 54 50 L 55 50 L 56 50 L 57 50 L 58 50 L 59 50 L 60 50 L 61 50 L 62 50 L 63 50 L 64 50 L 65 50 L 66 50 L 67 50 L 68 50 L 69 50 L 70 50 L 71 50 L 72 50 L 73 50 L 74 50 L 75 50 L 76 50 L 77 50 L 78 50 L 79 50 L 80 50 L 81 50 L 82 50 L 83 50 L 84 50 L 85 50 L 86 50 L 87 50 L 88 50 L 89 50 L 90 50 L 91 50 L 92 50 L 93 50 L 94 50 L 95 50 L 96 50 L 97 50 L 98 50 L 99 50 L 100 50 L 101 50 L 102 50 L 103 50 L 104 50 L 105 50 L 106 50 L 107 50 L 108 50 L 109 51 L 110 52 L 111 53 L 111 54 L 111 55 L 111 56 L 111 57 L 111 58 L 110 59 L 109 60 L 108 61 L 107 61 L 106 61 L 105 61 L 104 61 L 103 61 L 102 61 L 101 61 L 100 61 L 99 61 L 98 61 L 97 61 L 96 61 L 95 61 L 94 61 L 93 61 L 92 61 L 91 61 L 90 61 L 89 61 L 88 61 L 87 61 L 86 61 L 85 61 L 84 61 L 83 61 L 82 61 L 81 61 L 80 61 L 79 61 L 78 61 L 77 61 L 76 61 L 75 61 L 74 61 L 73 61 L 72 61 L 71 61 L 70 61 L 69 61 L 68 61 L 67 61 L 66 61 L 65 61 L 64 61 L 63 61 L 62 61 L 61 61 L 60 61 L 59 61 L 58 61 L 57 61 L 56 61 L 55 61 L 54 61 L 53 61 L 52 61 L 51 61 L 50 61 L 49 61 L 48 61 L 47 61 L 46 61 L 45 61 L 44 61 L 43 61 L 42 61 L 41 61 L 40 61 L 39 61 L 38 61 L 37 61 L 36 61 L 35 61 L 34 61 L 33 61 L 32 60 L 31 59 L 30 58 L 30 57 L 30 56 L 30 55 L 30 54 L 30 53 L 31 52 Z M 118 16 L 119 15 L 120 16 L 121 16 L 122 17 L 123 18 L 123 19 L 124 20 L 125 21 L 125 22 L 126 23 L 126 24 L 126 25 L 127 26 L 127 27 L 127 28 L 127 29 L 127 30 L 127 31 L 126 32 L 126 33 L 126 34 L 126 35 L 125 36 L 125 37 L 124 38 L 123 39 L 122 40 L 121 41 L 120 42 L 119 43 L 118 42 L 117 42 L 116 42 L 115 41 L 114 41 L 113 40 L 112 40 L 111 39 L 110 39 L 109 39 L 108 38 L 107 38 L 106 38 L 105 37 L 104 37 L 103 37 L 102 36 L 101 36 L 100 36 L 99 36 L 98 35 L 97 35 L 96 35 L 95 34 L 94 33 L 94 32 L 94 31 L 94 30 L 95 29 L 96 28 L 97 28 L 98 27 L 99 26 L 100 26 L 101 25 L 102 25 L 103 24 L 104 23 L 105 23 L 106 22 L 107 22 L 108 21 L 109 20 L 110 20 L 111 19 L 112 19 L 113 18 L 114 18 L 115 17 L 116 17 L 117 16 Z M 21 16 L 22 15 L 23 15 L 24 16 L 25 16 L 26 17 L 27 17 L 28 18 L 29 19 L 30 19 L 31 20 L 32 20 L 33 21 L 34 21 L 35 22 L 36 23 L 37 23 L 38 24 L 39 24 L 40 25 L 41 25 L 42 26 L 43 27 L 44 27 L 45 28 L 46 28 L 47 29 L 47 30 L 47 31 L 47 32 L 47 33 L 46 34 L 45 35 L 44 35 L 43 35 L 42 36 L 41 36 L 40 36 L 39 36 L 38 37 L 37 37 L 36 37 L 35 38 L 34 38 L 33 38 L 32 39 L 31 39 L 30 40 L 29 40 L 28 40 L 27 41 L 26 41 L 25 42 L 24 42 L 23 42 L 22 43 L 21 42 L 20 41 L 19 40 L 18 39 L 17 38 L 17 37 L 16 36 L 16 35 L 15 34 L 15 33 L 15 32 L 15 31 L 14 30 L 14 29 L 14 28 L 14 27 L 15 26 L 15 25 L 15 24 L 16 23 L 16 22 L 17 21 L 17 20 L 18 19 L 19 18 L 20 17 Z" fill="#234926" fill-rule="evenodd"/>
</svg>
